<?xml version="1.0" encoding="UTF-8"?>
<svg width="122px" height="32px" viewBox="0 0 122 32" version="1.1" xmlns="http://www.w3.org/2000/svg" xmlns:xlink="http://www.w3.org/1999/xlink">
    <!-- Generator: Sketch 53 (72520) - https://sketchapp.com -->
    <title>Group</title>
    <desc>Created with Sketch.</desc>
    <defs>
        <radialGradient cx="54.5922369%" cy="11.7918697%" fx="54.5922369%" fy="11.7918697%" r="124.384939%" gradientTransform="translate(0.545922,0.117919),scale(1.000000,0.538355),translate(-0.545922,-0.117919)" id="radialGradient-1">
            <stop stop-color="#171A8F" offset="0%"></stop>
            <stop stop-color="#D93DB0" offset="100%"></stop>
        </radialGradient>
        <radialGradient cx="25.4114823%" cy="-65.7148922%" fx="25.4114823%" fy="-65.7148922%" r="201.349826%" gradientTransform="translate(0.254115,-0.657149),scale(0.528671,1.000000),translate(-0.254115,0.657149)" id="radialGradient-2">
            <stop stop-color="#0045BA" offset="0%"></stop>
            <stop stop-color="#54B5E6" offset="100%"></stop>
        </radialGradient>
        <radialGradient cx="16.5862628%" cy="56.4402338%" fx="16.5862628%" fy="56.4402338%" r="155.590726%" gradientTransform="translate(0.165863,0.564402),scale(0.356906,1.000000),translate(-0.165863,-0.564402)" id="radialGradient-3">
            <stop stop-color="#54B5E6" offset="0%"></stop>
            <stop stop-color="#3B40B5" offset="100%"></stop>
        </radialGradient>
        <radialGradient cx="23.9523364%" cy="162.379044%" fx="23.9523364%" fy="162.379044%" r="197.284867%" gradientTransform="translate(0.239523,1.623790),scale(0.550076,1.000000),translate(-0.239523,-1.623790)" id="radialGradient-4">
            <stop stop-color="#E35203" offset="0%"></stop>
            <stop stop-color="#FFB359" offset="100%"></stop>
        </radialGradient>
        <radialGradient cx="45.6533138%" cy="12.3927742%" fx="45.6533138%" fy="12.3927742%" r="107.802635%" gradientTransform="translate(0.456533,0.123928),scale(0.356452,1.000000),translate(-0.456533,-0.123928)" id="radialGradient-5">
            <stop stop-color="#D93DB0" offset="0%"></stop>
            <stop stop-color="#363BF0" offset="100%"></stop>
        </radialGradient>
    </defs>
    <g id="Page-1" stroke="none" stroke-width="1" fill="none" fill-rule="evenodd">
        <g id="curve-logo-2" transform="translate(-39.000000, -14.000000)">
            <g id="Group" transform="translate(38.000000, 13.000000)">
                <path d="M5.683,28.316 C-0.571,22.061 -0.571,11.926 5.683,5.684 C6.91,4.457 8.27,3.484 9.723,2.737 L16.67,5.671 C15.177,6.258 13.79,7.165 12.576,8.365 C7.816,13.126 7.816,20.861 12.576,25.636 C13.709,26.77 15.016,27.636 16.416,28.223 C17.923,28.863 14.216,33.211 10.709,31.717 C8.883,30.943 7.176,29.81 5.683,28.316 Z" id="Path" fill="url(#radialGradient-1)"></path>
                <path d="M19.871,11.939 C19.418,11.472 19.031,10.965 18.818,10.392 C18.658,9.939 18.578,9.632 18.391,9.258 C17.991,8.404 17.431,7.591 16.724,6.884 C16.364,6.524 15.951,6.231 15.577,5.924 C12.217,3.257 27.964,4.897 28.338,5.684 C28.671,6.017 28.991,6.364 29.285,6.724 C29.285,6.724 29.325,6.777 29.365,6.831 C29.645,7.164 29.925,7.524 30.165,7.885 C30.165,7.872 30.218,7.952 30.272,8.032 C30.512,8.392 30.739,8.752 30.952,9.126 L30.952,9.126 C30.952,9.113 30.992,9.206 31.032,9.286 C31.045,9.286 31.045,9.299 31.045,9.299 C31.152,9.499 31.285,9.726 31.378,9.979 C31.685,10.539 32.018,11.393 32.005,11.833 C32.018,12.193 31.778,12.58 31.485,12.873 C31.125,13.233 30.432,13.406 29.952,13.393 L23.472,13.393 C22.164,13.406 20.857,12.926 19.871,11.939 Z" id="Path" fill="url(#radialGradient-2)"></path>
                <path d="M29.845,8.365 C26.031,4.564 20.338,3.804 15.777,6.071 C12.443,3.59 7.71,3.871 4.683,6.885 C4.443,7.138 4.203,7.405 3.99,7.672 C4.017,7.632 4.043,7.592 4.03,7.632 C4.123,7.499 4.217,7.379 4.297,7.272 C4.35,7.192 4.404,7.125 4.51,6.992 C4.59,6.885 4.737,6.712 4.883,6.552 C5.136,6.259 5.403,5.965 5.683,5.685 C8.817,2.551 12.91,0.991 17.004,0.991 C17.524,0.991 18.031,1.018 18.551,1.071 C18.951,1.111 19.364,1.164 19.764,1.244 C19.777,1.231 19.857,1.244 19.937,1.271 C20.324,1.338 20.71,1.418 21.097,1.524 L21.097,1.524 C21.097,1.524 21.19,1.551 21.284,1.577 L21.297,1.577 C21.67,1.684 22.057,1.804 22.43,1.937 C22.43,1.937 22.51,1.964 22.59,2.004 C23.377,2.284 24.137,2.644 24.87,3.058 C24.87,3.058 24.95,3.098 25.03,3.138 C25.377,3.338 25.71,3.565 26.057,3.791 L26.057,3.791 C26.057,3.791 26.15,3.858 26.23,3.924 L26.23,3.924 C26.563,4.151 26.897,4.404 27.217,4.671 C27.23,4.671 27.297,4.724 27.364,4.791 C27.684,5.071 28.017,5.364 28.324,5.685 C28.657,6.018 28.977,6.365 29.271,6.712 C29.271,6.712 29.324,6.765 29.364,6.832 C29.657,7.165 29.924,7.525 30.164,7.886 C30.164,7.873 30.217,7.966 30.284,8.046 C30.511,8.393 30.737,8.753 30.951,9.126 L30.951,9.126 C30.951,9.126 30.951,9.126 30.951,9.139 C30.951,9.126 31.004,9.219 31.044,9.312 C31.151,9.499 31.284,9.739 31.377,9.979 C31.524,10.246 31.684,10.579 31.79,10.913 C31.271,10.005 30.618,9.152 29.845,8.365 Z" id="Path" fill="url(#radialGradient-3)"></path>
                <path d="M19.871,22.061 C19.418,22.528 19.031,23.035 18.818,23.608 C18.658,24.061 18.578,24.355 18.391,24.728 C17.991,25.595 17.431,26.408 16.724,27.115 C16.311,27.515 15.884,27.862 15.431,28.169 L15.978,28.036 C23.552,31.877 27.765,28.569 31.379,24.022 C31.686,23.462 32.019,22.608 32.006,22.168 C32.019,21.808 31.779,21.421 31.486,21.128 C31.126,20.768 30.433,20.581 29.953,20.608 L23.473,20.608 C22.164,20.594 20.857,21.074 19.871,22.061 Z" id="Path" fill="url(#radialGradient-4)"></path>
                <path d="M29.845,25.635 C26.031,29.436 20.338,30.196 15.777,27.929 C12.443,30.41 7.71,30.129 4.683,27.115 C4.43,26.862 4.203,26.595 3.99,26.328 C4.017,26.368 4.043,26.408 4.03,26.368 C4.123,26.501 4.203,26.621 4.297,26.728 C4.35,26.808 4.404,26.875 4.51,27.008 C4.59,27.115 4.737,27.288 4.883,27.448 C5.136,27.741 5.403,28.035 5.683,28.315 C8.817,31.449 12.91,32.996 17.004,32.996 C17.524,32.996 18.031,32.983 18.551,32.929 C18.951,32.889 19.364,32.836 19.764,32.756 C19.777,32.769 19.857,32.743 19.937,32.729 C20.324,32.662 20.71,32.582 21.097,32.476 L21.097,32.476 C21.097,32.476 21.19,32.449 21.284,32.423 L21.297,32.423 C21.67,32.316 22.057,32.196 22.43,32.063 C22.43,32.063 22.51,32.036 22.59,31.996 C23.377,31.716 24.137,31.356 24.87,30.942 C24.87,30.942 24.95,30.902 25.03,30.862 C25.377,30.662 25.71,30.435 26.057,30.209 L26.057,30.209 C26.057,30.209 26.15,30.142 26.23,30.076 L26.23,30.076 C26.563,29.849 26.897,29.596 27.217,29.329 C27.23,29.329 27.297,29.262 27.364,29.209 C27.697,28.929 28.017,28.636 28.337,28.315 C28.67,27.982 28.977,27.635 29.27,27.288 C29.27,27.288 29.323,27.235 29.363,27.168 C29.656,26.835 29.923,26.475 30.163,26.114 C30.163,26.127 30.216,26.034 30.27,25.954 C30.51,25.607 30.737,25.247 30.95,24.874 L30.95,24.874 C30.95,24.874 30.95,24.874 30.95,24.861 C30.95,24.874 31.003,24.781 31.043,24.688 C31.15,24.501 31.283,24.261 31.376,24.021 C31.523,23.754 31.683,23.408 31.789,23.087 C31.271,23.995 30.618,24.848 29.845,25.635 Z" id="Path" fill="url(#radialGradient-5)"></path>
                <path d="M60.047,22.448 C58.687,21.088 58.007,19.287 58.007,17.5 L58.007,8.498 L62.007,8.498 L62.007,17.5 L61.994,17.5 C61.994,18.26 62.287,19.034 62.874,19.62 C64.047,20.794 65.954,20.794 67.128,19.62 C67.701,19.033 67.995,18.26 67.995,17.5 L67.995,8.498 L72.009,8.498 L72.009,17.34 L71.996,17.673 C71.956,19.407 71.276,21.127 69.956,22.447 C67.22,25.182 62.78,25.182 60.047,22.448 Z" id="Path" fill="#17198F"></path>
                <path d="M75.994,24.502 L75.994,15.5 C75.994,13.7 76.687,11.913 78.047,10.552 C79.42,9.178 81.207,8.498 82.994,8.498 L83.994,8.498 L83.994,12.499 L82.994,12.499 C82.234,12.499 81.461,12.792 80.874,13.379 C80.287,13.952 79.994,14.726 79.994,15.499 L79.994,24.501 L75.994,24.501 L75.994,24.502 Z" id="Path" fill="#17198F"></path>
                <path d="M41.312,22.154 C38.232,19.033 38.232,13.966 41.312,10.845 C44.392,7.711 49.393,7.711 52.473,10.845 C53.113,11.498 53.62,12.245 54.006,13.032 L50.539,14.979 L50.539,14.979 C50.339,14.499 50.059,14.059 49.672,13.672 C48.139,12.112 45.645,12.112 44.098,13.672 C42.565,15.232 42.565,17.766 44.098,19.327 C45.645,20.887 48.138,20.887 49.672,19.327 C50.059,18.94 50.339,18.5 50.539,18.02 L53.993,19.967 L54.006,19.967 C53.619,20.754 53.113,21.501 52.473,22.154 C49.392,25.275 44.392,25.275 41.312,22.154 Z" id="Path" fill="#17198F"></path>
                <path d="M109.343,22.154 C106.223,19.033 106.223,13.966 109.343,10.845 C112.463,7.711 117.544,7.711 120.664,10.845 C121.304,11.392 121.877,12.205 122.211,13.032 C122.891,14.432 123.131,15.993 122.944,17.5 L111.13,17.5 C111.303,18.167 111.65,18.807 112.17,19.327 C113.743,20.887 116.264,20.887 117.837,19.327 C118.21,18.94 118.504,18.5 118.704,18.02 L122.211,19.967 L122.211,19.967 C121.838,20.754 121.318,21.501 120.664,22.154 C117.544,25.275 112.463,25.275 109.343,22.154 Z M117.837,13.673 C116.264,12.113 113.743,12.113 112.17,13.673 C111.917,13.926 111.717,14.206 111.543,14.5 L118.463,14.5 C118.304,14.193 118.104,13.926 117.837,13.673 Z" id="Shape" fill="#17198F"></path>
                <polygon id="Path" fill="#17198F" points="94.996 24.502 87.995 8.498 91.995 8.498 95.996 17.633 99.996 8.498 103.996 8.498 96.996 24.502"></polygon>
            </g>
        </g>
    </g>
</svg>